<svg xml:space="preserve" style="enable-background:new 0 0 174.6 63.2;" viewBox="0 0 174.6 63.2" y="0px" x="0px" xmlns:xlink="http://www.w3.org/1999/xlink" xmlns="http://www.w3.org/2000/svg" id="Layer_1">
<style type="text/css">
	.st0{fill:#434343;}
</style>
<g>
	<path d="M26.3,2.6C20.3,4.2,14.9,7,11.9,12.1c-0.6,1.1-1.1,2.3-1.5,3.6c-19.1,9.9-5.7,33.6,1.5,47.1l0.2,0.3l12.1-13.8
		c-4.4-8.3-11.6-20.5-10-30.5c3.8-1.6,8-2.4,12.2-2.9c2.4-0.3,4.8-0.5,7.2-0.6L46.6,0.2C40.8,0.6,33.2,0.8,26.3,2.6z M18.9,48.6
		l-6,6.8c-0.3-0.6-0.7-1.3-1-2C7.2,44.2,0,28.8,9.6,21.3c0,3.5,0.8,7.4,2.3,11.6C13.5,37.6,15.9,42.9,18.9,48.6z M31.4,10.9
		c-1.8,0.1-3.5,0.3-5.1,0.5c-3.8,0.5-7.1,1.1-10,1.9c2-2.6,5.2-4.6,10-6c2.8-0.8,6.1-1.5,10-1.9L31.4,10.9z" class="st0"></path>
	<polygon points="77.3,23.1 77.6,24.1 79.8,30.5 82.9,30.5 86.8,18.5 83.8,18.5 81.4,26.9 78.9,19.5 77.6,19.5 76,19.5 
		73.3,26.9 70.7,18.5 67.5,18.5 71.5,30.5 74.6,30.5" class="st0"></polygon>
	<path d="M65.8,36.3c-1.7,0-2.7,1.4-3.2,1.9l-0.5-1.6h-0.9h-1.9c0.1,0.8,0.3,1.5,0.3,2.5v9.4h1.5h1.4v-7.8
		c0.6-1.1,1.4-2.3,2.6-2.3c1.8,0,1.9,1.2,1.9,2.4v7.7h3v-7.6C70.2,38.4,69.4,36.3,65.8,36.3z" class="st0"></path>
	<path d="M57.9,43.8c0-5-1.5-7.4-5.5-7.5l-0.1,0c-4.4,0-5.7,3.7-5.7,6.5c0,3.3,1.9,6.2,5.8,6.2h0c1.6,0,3.5-0.3,4.9-0.9
		l-1-2.3c-1.3,0.6-2.6,1-3.8,1c-0.1,0-0.1,0-0.2,0c-1.5-0.1-2.5-1.1-2.7-3h2.7H57.9z M52.2,38.6l0.1,0c1.5,0,2.6,0.9,2.7,3.1h-2.7
		h-2.7C49.8,39.2,51.3,38.6,52.2,38.6z" class="st0"></path>
	<path d="M166.8,36.3c-1.3,0.1-3.5,0.2-4.5,0.3c-0.6-0.1-1.1-0.2-2-0.2h0c-4.7,0-5.4,3.1-5.4,4.5c0,1.6,0.9,2.7,1.2,3.1
		c-0.7,0.5-1.4,1.2-1.4,2.1c0,1,0.5,1.8,1.5,2.2c-0.7,0.3-1.9,0.9-1.9,2.3c0,2,1.4,3.4,6.1,3.4h0.2c3,0,6.1-0.8,6.1-3.5
		c0-2-1.1-3.1-5.9-3.5l-0.4,0c-2.6-0.2-3.2-0.4-3.2-1c0-0.4,0.3-0.7,0.6-0.9c0.6,0.3,2.1,0.4,2.6,0.4h0c4.2,0,5.5-2.5,5.5-4.6
		c0-1.1-0.7-2.2-1.2-2.7h1.5L166.8,36.3z M158.1,49.3c0.8,0,1.6,0.1,2.2,0.1c2.5,0.2,3.3,0.7,3.3,1.1c0,1-0.7,1.3-3.1,1.3l-0.2,0
		c-1.6,0-3-0.5-3-1.3C157.3,50,157.6,49.5,158.1,49.3z M160.4,43.3L160.4,43.3c-1.4,0-2.5-0.6-2.5-2.3c0-1.9,1.2-2.4,2.4-2.4h0
		c1.6,0,2.4,0.9,2.4,2.3C162.7,42,162.2,43.3,160.4,43.3z" class="st0"></path>
	<path d="M46.9,21.2v9.3h3v-7.2c0.3-0.7,1-2.9,2.4-2.9h0c0.6,0,1.3,0.4,1.7,0.7l1-2.4c-0.7-0.4-1.3-0.6-2.3-0.6
		c-0.1,0-0.3,0-0.4,0.1c-1.1,0.3-2.2,1.7-2.6,2.4l-0.5-2h-2.7C46.7,19.1,46.9,20,46.9,21.2z" class="st0"></path>
	<path d="M62.5,23c-0.4,0-0.8,0-1.2,0c-4.1,0.3-5.4,2.1-5.4,4.3c0,2.3,1.9,3.5,4.9,3.5c0.2,0,0.3,0,0.4,0
		c1.1-0.2,1.9-1,2.4-1.5l0.4,1.2H67c-0.2-1.3-0.5-2.7-0.5-3.7V22c0-2.6-1.9-3.8-4.5-3.8c-0.2,0-0.5,0-0.7,0
		c-1.7,0.1-3.5,0.4-4.9,0.9l1,2.4c1-0.5,2.4-0.9,3.9-1c0.2,0,0.3,0,0.5,0c1.5,0,1.7,1,1.7,1.9V23H62.5z M63.6,25v2.4
		c-0.5,0.6-1.2,1.2-2.3,1.2c0,0-0.1,0-0.1,0c-1.1,0-2.1-0.3-2.1-1.3c0-1.1,0.6-1.9,2.3-2.1c0.5-0.1,1-0.1,1.6-0.1H63.6z" class="st0"></path>
	<rect height="2.6" width="3.1" class="st0" y="31.7" x="137.7"></rect>
	<path d="M126.5,43.8c0-5-1.5-7.4-5.6-7.5l-0.1,0c-4.4,0-5.7,3.7-5.7,6.5c0,3.3,1.9,6.2,5.8,6.2h0
		c1.6,0,3.5-0.3,4.9-0.9l-1-2.3c-1.3,0.6-2.6,1-3.8,1c-0.1,0-0.1,0-0.2,0c-1.5-0.1-2.5-1.1-2.7-3h2.7H126.5z M120.9,38.6l0.1,0
		c1.5,0,2.6,0.9,2.7,3.1H121h-2.7C118.4,39.2,119.9,38.6,120.9,38.6z" class="st0"></path>
	<path d="M131.1,38.7l-0.5-2h-2.7c0.1,0.6,0.3,1.5,0.3,2.7v9.3h3v-7.2c0.3-0.7,1-2.9,2.4-2.9c0.7,0,1.3,0.4,1.7,0.7
		l1-2.4c-0.7-0.4-1.3-0.6-2.3-0.6C132.8,36.3,131.6,38,131.1,38.7z" class="st0"></path>
	<rect height="12" width="3" class="st0" y="36.7" x="137.8"></rect>
	<path d="M148.6,36.3c-1.7,0-2.7,1.4-3.2,1.9l-0.5-1.6h-2.7c0.1,0.8,0.3,1.5,0.3,2.5v9.4h3v-7.8
		c0.6-1.1,1.4-2.3,2.6-2.3c1.8,0,1.9,1.2,1.9,2.4v7.7h3v-7.6C153,38.4,152.1,36.3,148.6,36.3z" class="st0"></path>
	<path d="M114,43.8c0-5-1.5-7.4-5.5-7.5l-0.1,0c-4.4,0-5.7,3.7-5.7,6.5c0,3.3,1.9,6.2,5.8,6.2h0c1.6,0,3.5-0.3,4.9-0.9
		l-1-2.3c-1.3,0.6-2.6,1-3.8,1c-0.1,0-0.1,0-0.2,0c-1.5-0.1-2.5-1.1-2.7-3h2.7H114z M108.3,38.6l0.1,0c1.5,0,2.6,0.9,2.7,3.1h-2.7
		h-2.7C105.8,39.2,107.3,38.6,108.3,38.6z" class="st0"></path>
	<path d="M96.8,36.3c-1.7,0-2.7,1.4-3.2,1.9l-0.5-1.6h-2.7c0.1,0.8,0.3,1.5,0.3,2.5v9.4h3v-7.8c0.6-1.1,1.4-2.3,2.6-2.3
		c1.8,0,1.9,1.2,1.9,2.4v7.7h3v-7.6C101.1,38.4,100.3,36.3,96.8,36.3z" class="st0"></path>
	<path d="M84.1,36.3c-1.3,0.1-3.5,0.2-4.5,0.3c-0.6-0.1-1.1-0.2-2-0.2h0c-4.7,0-5.4,3.1-5.4,4.5c0,1.6,0.9,2.7,1.2,3.1
		c-0.7,0.5-1.4,1.2-1.4,2.1c0,1,0.5,1.8,1.5,2.2c-0.7,0.3-1.9,0.9-1.9,2.3c0,2,1.4,3.4,6.1,3.4h0.2c3,0,6.1-0.8,6.1-3.5
		c0-2-1.1-3.1-5.9-3.5l-0.4,0c-2.6-0.2-3.2-0.4-3.2-1c0-0.4,0.3-0.7,0.6-0.9c0.6,0.3,2.2,0.4,2.6,0.4h0c4.2,0,5.5-2.5,5.5-4.6
		c0-1.1-0.7-2.2-1.2-2.7h1.5L84.1,36.3z M75.5,49.3c0.8,0,1.6,0.1,2.2,0.1c2.5,0.2,3.3,0.7,3.3,1.1c0,1-0.7,1.3-3.1,1.3l-0.2,0
		c-1.6,0-3-0.5-3-1.3C74.6,50,74.9,49.5,75.5,49.3z M77.7,43.3L77.7,43.3c-1.4,0-2.5-0.6-2.5-2.3c0-1.9,1.2-2.4,2.4-2.4h0
		c1.6,0,2.4,0.9,2.4,2.3C80.1,42,79.5,43.3,77.7,43.3z" class="st0"></path>
	<rect height="2.6" width="3.1" class="st0" y="31.7" x="85.6"></rect>
	<rect height="12" width="3" class="st0" y="36.7" x="85.7"></rect>
	<path d="M171.7,36.2c-1.3,0-2.4,1.1-2.4,2.4c0,1.3,1.1,2.3,2.4,2.3c1.3,0,2.3-1.1,2.3-2.3
		C174,37.2,173,36.2,171.7,36.2z M171.7,40.4c-1.1,0-1.9-0.9-1.9-1.9c0-1.1,0.9-1.9,1.9-1.9c1,0,1.9,0.9,1.9,1.9
		C173.6,39.6,172.7,40.4,171.7,40.4z" class="st0"></path>
	<path d="M172.3,38.7c-0.1-0.1-0.1-0.1-0.2-0.1c0.1,0,0.3-0.1,0.3-0.2c0.1-0.1,0.1-0.2,0.1-0.4c0-0.2-0.1-0.4-0.2-0.5
		c-0.1-0.1-0.4-0.2-0.7-0.2h-0.9v2.3h0.6v-0.9h0.2c0.1,0,0.2,0,0.2,0.1c0.1,0,0.1,0.1,0.2,0.2l0.3,0.6h0.6l-0.3-0.7
		C172.4,38.9,172.4,38.8,172.3,38.7z M171.8,38.3c-0.1,0-0.1,0.1-0.3,0.1h-0.3v-0.6h0.3c0.1,0,0.2,0,0.3,0.1c0.1,0,0.1,0.1,0.1,0.2
		C171.9,38.2,171.9,38.2,171.8,38.3z" class="st0"></path>
</g>
</svg>
